<svg xmlns="http://www.w3.org/2000/svg" viewBox="0 0 64.57 25.29"><defs><style>.cls-1{fill:#1d1d1b;}</style></defs><g id="Layer_2" data-name="Layer 2"><g id="Layer_1_Image" data-name="Layer 1 Image"><circle class="cls-1" cx="32.58" cy="18.05" r="7.24"/><circle class="cls-1" cx="57.34" cy="7.24" r="7.24"/><circle class="cls-1" cx="7.24" cy="7.24" r="7.24"/><path class="cls-1" d="M25.34,18.05a7.16,7.16,0,0,1,1-3.59,30,30,0,0,1-12-5.54A7.24,7.24,0,0,1,9.9,14a36.68,36.68,0,0,0,16.18,7.25A7.1,7.1,0,0,1,25.34,18.05Z"/><path class="cls-1" d="M55.11,14.12A7.27,7.27,0,0,1,50.4,9.29a30,30,0,0,1-11.55,5.17,7.2,7.2,0,0,1,.22,6.77A36.65,36.65,0,0,0,55.11,14.12Z"/></g></g></svg>