<svg xmlns="http://www.w3.org/2000/svg" viewBox="0 0 116.6 100.32"><defs><style>.cls-1{fill:#1d1d1b;}</style></defs><g id="Layer_2" data-name="Layer 2"><g id="Layer_1_Image" data-name="Layer 1 Image"><path class="cls-1" d="M109.2,77.39a7.5,7.5,0,0,0-2.52.44l.09,0c-7.23-7.64-18.07-13.59-33-15.89,0-.49.07-1,.07-1.5a18.15,18.15,0,0,0-9.73-16.07L55.73,0,47.3,44.34a18.14,18.14,0,0,0-9.72,16.07A18.42,18.42,0,0,0,38,64.08C23.52,68.35,12.32,76.47,5.86,85.67a7.41,7.41,0,1,0,8.1,3.8c7-8.37,15.76-15.7,26.16-19.8a18.18,18.18,0,0,0,12.49,8.6,3.3,3.3,0,0,1-2,3,2.26,2.26,0,0,0-1.29,2.1V92a2.35,2.35,0,0,0,2.34,2.35H59.8A2.34,2.34,0,0,0,62.14,92V83.34a2.25,2.25,0,0,0-1.29-2.1,3.3,3.3,0,0,1-2-3,18.17,18.17,0,0,0,13.5-10.58,77.18,77.18,0,0,1,30.18,13.9,1.09,1.09,0,0,1,.08-.15,7.3,7.3,0,0,0-.81,3.35,7.41,7.41,0,1,0,7.41-7.4Zm-3,.66-.17.08Zm-.64.33a1.18,1.18,0,0,0-.19.11A1.18,1.18,0,0,1,105.51,78.38Zm-.6.38-.2.15Zm-.56.44-.21.19Zm-.52.49-.19.22ZM103,80.82l-.16.27Zm.42-.59a2.35,2.35,0,0,0-.19.25A2.35,2.35,0,0,1,103.37,80.23Z"/></g></g></svg>