<svg xmlns="http://www.w3.org/2000/svg" viewBox="0 0 160 160"><defs><style>.cls-1{fill:#1d1d1b;}</style></defs><g id="Layer_2" data-name="Layer 2"><g id="Layer_1_Image" data-name="Layer 1 Image"><path class="cls-1" d="M159.9,85.12c0-.62.07-1.23.1-1.86L151.54,80c0-.25,0-.5,0-.75L160,76c0-.64-.08-1.27-.14-1.91l-8.77-2.31c0-.22-.07-.45-.09-.67L159,67c-.11-.65-.23-1.29-.35-1.93l-9-1.29c-.06-.21-.1-.42-.14-.61l7.49-5c-.18-.64-.35-1.28-.54-1.93l-9.11-.25c-.07-.18-.12-.38-.19-.56l6.88-5.84c-.27-.63-.55-1.26-.83-1.89l-9,.78c-.07-.15-.15-.31-.23-.46l6.18-6.61c-.35-.62-.7-1.22-1-1.82l-8.92,1.8c-.09-.12-.16-.26-.24-.39l5.37-7.26c-.42-.58-.83-1.17-1.26-1.75l-8.64,2.83c-.09-.11-.19-.22-.27-.34l4.52-7.81c-.49-.55-1-1.08-1.5-1.61l-8.26,3.77-.27-.25,3.61-8.3c-.56-.51-1.12-1-1.68-1.47l-7.79,4.7-.25-.2,2.61-8.66c-.6-.43-1.21-.86-1.84-1.28l-7.18,5.54-.28-.16,1.63-8.91c-.66-.36-1.33-.71-2-1l-6.5,6.32c-.08-.05-.17-.07-.25-.12l.6-9c-.71-.28-1.41-.58-2.13-.84l-5.74,7-.27-.08-.43-9-2.21-.6L94.58,10a1.11,1.11,0,0,1-.25-.05L92.86,1C92.1.88,91.33.78,90.58.67l-4,8.14h-.25L83.85.06,81.55,0l-3,8.54h-.24L74.8.15c-.76.06-1.53.1-2.3.19l-2,8.82-.27,0L65.8,1.26c-.74.12-1.5.26-2.25.42l-1,9-.3.07L57,3.36c-.72.22-1.44.44-2.16.68v9.05l-.29.11L48.44,6.46c-.68.29-1.37.6-2,.92l1,9-.31.16-6.8-6L38.4,11.63l2.06,8.83-.31.21-7.45-5.2c-.59.44-1.16.89-1.75,1.34L34,25.31c-.1.1-.21.18-.31.27l-8-4.31-1.57,1.48,4,8.13a2.27,2.27,0,0,0-.3.32l-8.44-3.37c-.46.53-.93,1.06-1.38,1.61L22.89,37q-.16.21-.3.42l-8.77-2.39c-.39.57-.76,1.14-1.14,1.73l5.72,7c-.09.17-.18.33-.28.49l-9-1.37c-.31.6-.63,1.19-.92,1.8L14.7,51l-.27.58-9.07-.35c-.24.61-.48,1.23-.69,1.84l7.15,5.51c-.07.21-.14.44-.2.66l-9.07.7c-.17.61-.3,1.24-.44,1.86l7.74,4.66c-.06.25-.1.49-.14.74L.78,68.9c-.08.61-.16,1.23-.23,1.86L8.77,74.5l-.06.8L.06,78c0,.6,0,1.21-.06,1.82l8.6,2.79c0,.28,0,.58,0,.87L.34,87.2c0,.59.11,1.18.18,1.76l8.82,1.78c.06.31.11.61.17.92L1.66,96.29c.13.56.27,1.12.4,1.66l9,.77c.09.33.19.65.28,1l-7.24,5.49c.17.53.34,1.06.53,1.58l9-.27c.14.34.25.66.39,1l-6.56,6.26c.23.49.45,1,.69,1.46l8.94-1.29c.16.32.36.65.54,1l-5.82,7c.28.45.58.89.86,1.33l8.72-2.29c.23.31.44.62.66.92l-5,7.6c.32.4.62.81,1,1.2l8.42-3.29c.26.31.51.6.79.9l-4.08,8.09c.36.37.73.72,1.08,1.07l8-4.21.93.79L30,142.45c.39.31.78.62,1.18.91l7.44-5.1c.35.25.68.5,1,.74l-2.12,8.79c.4.27.81.52,1.21.77l6.83-5.91c.37.21.77.4,1.16.61l-1.12,9c.42.21.85.39,1.28.59l6.1-6.66,1.25.49-.09,9.05c.44.15.88.31,1.33.45l5.32-7.31c.43.11.85.25,1.28.36l.95,9c.45.09.91.21,1.36.29l4.45-7.87c.44.07.89.11,1.33.18l2,8.84,1.4.11,3.51-8.34c.44,0,.89,0,1.34,0L81.35,160l1.41,0,2.55-8.69,1.33-.09,3.91,8.13c.46-.05.92-.09,1.39-.16l1.53-8.94,1.32-.25,4.81,7.65c.46-.11.91-.24,1.37-.36l.5-9c.42-.12.84-.28,1.25-.42l5.66,7.05,1.33-.52-.52-9c.39-.19.79-.35,1.16-.54l6.42,6.35c.44-.22.87-.43,1.3-.67l-1.55-8.93,1.06-.65,7.11,5.58c.42-.28.81-.57,1.23-.87l-2.56-8.68.94-.74,7.69,4.73,1.16-1-3.54-8.36c.28-.27.56-.52.84-.8l8.15,3.83c.37-.39.73-.77,1.08-1.16l-4.46-7.89c.24-.29.45-.58.68-.88l8.56,2.88c.32-.43.63-.88.95-1.32l-5.34-7.33c.18-.3.38-.59.56-.9l8.84,1.88c.27-.48.56-1,.82-1.43l-6.15-6.7c.16-.3.31-.6.45-.91l9,.87.65-1.58-6.86-5.94c.11-.3.19-.59.31-.9l9-.17c.17-.55.32-1.13.48-1.69l-7.51-5.13c.07-.28.14-.56.19-.85l8.94-1.2c.11-.59.22-1.18.32-1.78l-8.06-4.25c0-.27.07-.53.1-.81ZM80,144.7A64.7,64.7,0,1,1,144.74,80,64.7,64.7,0,0,1,80,144.7Z"/></g></g></svg>