<svg xmlns="http://www.w3.org/2000/svg" viewBox="0 0 216.43 177.78"><defs><style>.cls-1{fill:#ff4654;}</style></defs><g id="Layer_2" data-name="Layer 2"><g id="Layer_1-2" data-name="Layer 1"><g id="Layer_2-2" data-name="Layer 2"><g id="Layer_1-2-2" data-name="Layer 1-2"><path class="cls-1" d="M.69.22C2-.58,2.87,1,3.59,1.87Q72.95,88.65,142.37,175.39a1.37,1.37,0,0,1,0,2,1.36,1.36,0,0,1-1.09.43H74.89a5.82,5.82,0,0,1-4.56-2.24L1.42,89.43A6.2,6.2,0,0,1,0,85.26V2.06C0,1.41,0,.56.69.22Z"/><path class="cls-1" d="M214.56.08a1.42,1.42,0,0,1,1.79.91,1.22,1.22,0,0,1,.06.6V84.82a6.42,6.42,0,0,1-1.3,4.43l-21,26.2a5.92,5.92,0,0,1-5,2.25h-66a1.39,1.39,0,0,1-1.08-2.39Q167.9,58,213.68.83A2.36,2.36,0,0,1,214.56.08Z"/></g></g></g></g></svg>