<svg xmlns="http://www.w3.org/2000/svg" viewBox="0 0 564.73 129.37"><defs><style>.cls-1{fill:#010101;}</style></defs><g id="Layer_2" data-name="Layer 2"><g id="Layer_1-2" data-name="Layer 1"><g id="Valorant_logo" data-name="Valorant logo"><path class="cls-1" d="M524.31,48.21h13.4l0,41.12a1,1,0,0,0,1,1h7.68a1,1,0,0,0,1-1l0-41.11h16.81a.59.59,0,0,0,.46-1L558.84,40a2.52,2.52,0,0,0-2-1H524.31a1,1,0,0,0-1,1v7.21a1,1,0,0,0,1,1M200.69,89.33,240,40a.59.59,0,0,0-.46-1h-9.84a2.52,2.52,0,0,0-2,1L199.83,75V40a1,1,0,0,0-1-1h-7.68a1,1,0,0,0-1,1V89.33a1,1,0,0,0,1,1h7.52a2.53,2.53,0,0,0,2-1m27.73,0,13.53-17,13.53,17a2.52,2.52,0,0,0,2,1H265a1,1,0,0,0,1-1V40a1,1,0,0,0-1-1h-6.3a5.12,5.12,0,0,0-4,1.91L216.13,89.32a.59.59,0,0,0,.47,1h9.83a2.5,2.5,0,0,0,2-1m27.91-36V76l-9.06-11.35ZM476,89.32,436.61,40a2.58,2.58,0,0,0-2-1h-7.51a1,1,0,0,0-1,1V89.33a1,1,0,0,0,1,1h7.51a2.52,2.52,0,0,0,2-1l13.53-17,13.53,17a2.52,2.52,0,0,0,2,1h9.84a.6.6,0,0,0,.46-1M444.81,64.68,435.74,76V53.32ZM336.57,37.8a26.89,26.89,0,1,0,26.85,26.88A26.86,26.86,0,0,0,336.57,37.8m0,44.63a17.76,17.76,0,1,1,17.25-17.75,17.5,17.5,0,0,1-17.25,17.75M507.07,40V75l-27.9-35a2.58,2.58,0,0,0-2-1h-7.52a1,1,0,0,0-1,1V63.79a2.55,2.55,0,0,0,.56,1.59l8,10a.6.6,0,0,0,1.06-.37V54.35l27.91,35a2.52,2.52,0,0,0,2,1h7.51a1,1,0,0,0,1-1V40a1,1,0,0,0-1-1H508a1,1,0,0,0-1,1M413.24,50.72V40a1,1,0,0,0-1-1H373a1,1,0,0,0-1,1V89.33a1,1,0,0,0,1,1h7.68a1,1,0,0,0,1-1V48.22h22L388.78,66.85a1,1,0,0,0,0,1.21l17,21.28a2.54,2.54,0,0,0,2,1h9.84a.59.59,0,0,0,.46-1L400.58,67.46l12.1-15.14a2.6,2.6,0,0,0,.56-1.6M278.43,90.29h22.79a2.52,2.52,0,0,0,2-1L309,82.11a.59.59,0,0,0-.46-1H287.07V40a1,1,0,0,0-1-1h-7.68a1,1,0,0,0-1,1V89.33a1,1,0,0,0,1,1"/></g><g id="Layer_2-2" data-name="Layer 2"><g id="Layer_1-2-2" data-name="Layer 1-2"><path class="cls-1" d="M.51.16c1-.58,1.58.57,2.11,1.2q50.46,63.15,101,126.26a1,1,0,0,1,0,1.43,1,1,0,0,1-.79.31H54.5a4.2,4.2,0,0,1-3.32-1.63Q26.12,96.41,1,65.07a4.46,4.46,0,0,1-1-3V1.5C0,1,0,.41.51.16Z"/><path class="cls-1" d="M156.13.06a1,1,0,0,1,1.3.66,1.09,1.09,0,0,1,0,.44V61.72a4.72,4.72,0,0,1-.95,3.22L141.25,84a4.31,4.31,0,0,1-3.64,1.64h-48a1,1,0,0,1-1.1-.92,1,1,0,0,1,.31-.82L155.49.6A1.6,1.6,0,0,1,156.13.06Z"/></g></g></g></g></svg>