<svg xmlns="http://www.w3.org/2000/svg" viewBox="0 0 564.83 129.36"><defs><style>.cls-1{fill:#fff;}</style></defs><g id="Layer_2" data-name="Layer 2"><g id="Layer_1-2" data-name="Layer 1"><g id="Layer_2-2" data-name="Layer 2"><g id="Layer_1-2-2" data-name="Layer 1-2"><g id="Valorant_logo" data-name="Valorant logo"><path class="cls-1" d="M524.31,48.21h13.4V89.33a1,1,0,0,0,1,1h7.68a1,1,0,0,0,1-1V48.22H564.2a.59.59,0,0,0,.63-.55.58.58,0,0,0-.17-.45L558.84,40a2.49,2.49,0,0,0-2-1H524.31a1,1,0,0,0-1,1v7.21a1,1,0,0,0,1,1M200.69,89.33,240,40a.59.59,0,0,0-.46-1H229.7a2.52,2.52,0,0,0-2,1L199.83,75V40a1,1,0,0,0-1-1h-7.68a1,1,0,0,0-1,1V89.33a1,1,0,0,0,1,1h7.52a2.49,2.49,0,0,0,2-1m27.73,0,13.53-17,13.53,17a2.52,2.52,0,0,0,2,1H265a1,1,0,0,0,1-1V40a1,1,0,0,0-1-1h-6.3a5.15,5.15,0,0,0-4,1.91L216.13,89.32a.59.59,0,0,0,0,.83.62.62,0,0,0,.46.17h9.83a2.49,2.49,0,0,0,2-1m27.91-36V76l-9.06-11.35ZM476,89.32,436.61,40a2.56,2.56,0,0,0-2-1H427.1a1,1,0,0,0-1,1V89.33a1,1,0,0,0,1,1h7.51a2.49,2.49,0,0,0,2-1l13.53-17,13.53,17a2.52,2.52,0,0,0,2,1h9.84a.61.61,0,0,0,.62-.59.57.57,0,0,0-.16-.41M444.81,64.68,435.74,76V53.32ZM336.57,37.8a26.89,26.89,0,1,0,26.85,26.93v0A26.86,26.86,0,0,0,336.58,37.8h0m0,44.63a17.76,17.76,0,1,1,17.25-18.26v.51a17.5,17.5,0,0,1-17.24,17.75h0M507.07,40V75l-27.9-35a2.56,2.56,0,0,0-2-1h-7.52a1,1,0,0,0-1,1V63.79a2.55,2.55,0,0,0,.56,1.59l8,10a.6.6,0,0,0,1.06-.37V54.35l27.91,35a2.52,2.52,0,0,0,2,1h7.51a1,1,0,0,0,1-1V40a1,1,0,0,0-1-1H508a1,1,0,0,0-1,1M413.24,50.72V40a1,1,0,0,0-1-1H373a1,1,0,0,0-1,1V89.33a1,1,0,0,0,1,1h7.68a1,1,0,0,0,1-1V48.22h22l-14.9,18.63a1,1,0,0,0,0,1.21l17,21.28a2.58,2.58,0,0,0,2,1h9.84a.59.59,0,0,0,.63-.55.58.58,0,0,0-.17-.45l-17.5-21.88,12.1-15.14a2.6,2.6,0,0,0,.56-1.6M278.43,90.29h22.79a2.49,2.49,0,0,0,2-1L309,82.11a.59.59,0,0,0-.46-1H287.07V40a1,1,0,0,0-1-1h-7.68a1,1,0,0,0-1,1V89.33a1,1,0,0,0,1,1"/></g><g id="Layer_2-2-2" data-name="Layer 2-2"><g id="Layer_1-2-2-2" data-name="Layer 1-2-2"><path class="cls-1" d="M.51.16c1-.58,1.58.57,2.11,1.2q50.46,63.15,101,126.26a1,1,0,0,1,0,1.41l0,0a1,1,0,0,1-.79.31H54.5a4.2,4.2,0,0,1-3.32-1.63Q26.13,96.41,1,65.07a4.52,4.52,0,0,1-1-3V1.5C0,1,0,.41.51.16Z"/><path class="cls-1" d="M156.13.06a1,1,0,0,1,1.28.6.14.14,0,0,1,0,.06,1.09,1.09,0,0,1,0,.44V61.72a4.72,4.72,0,0,1-1,3.22L141.25,84a4.31,4.31,0,0,1-3.64,1.64h-48a1,1,0,0,1-1.09-.89v0a1,1,0,0,1,.31-.82L155.49.6A1.75,1.75,0,0,1,156.13.06Z"/></g></g></g></g></g></g></svg>