<?xml version="1.0" encoding="utf-8"?>
<!-- Generator: Adobe Illustrator 16.0.0, SVG Export Plug-In . SVG Version: 6.00 Build 0)  -->
<!DOCTYPE svg PUBLIC "-//W3C//DTD SVG 1.1//EN" "http://www.w3.org/Graphics/SVG/1.1/DTD/svg11.dtd">
<svg version="1.1" id="Layer_1" xmlns="http://www.w3.org/2000/svg" xmlns:xlink="http://www.w3.org/1999/xlink" x="0px" y="0px"
	 width="170px" height="50px" viewBox="0 0 170 50" enable-background="new 0 0 170 50" xml:space="preserve">
<g>
	<g>
		<g id="_Group_">
			<g id="_Group_2">
				<g id="_Group_3">
					<path id="_Path_" d="M37.284,24.478c0.032-2.436,1.309-4.687,3.384-5.962c-1.315-1.878-3.439-3.027-5.732-3.099
						c-2.411-0.253-4.749,1.443-5.979,1.443c-1.252,0-3.145-1.418-5.182-1.376c-2.681,0.086-5.12,1.574-6.424,3.917
						c-2.777,4.809-0.705,11.876,1.955,15.763c1.331,1.904,2.887,4.029,4.922,3.954c1.992-0.082,2.736-1.271,5.141-1.271
						c2.382,0,3.081,1.271,5.157,1.222c2.138-0.033,3.484-1.911,4.769-3.833c0.956-1.356,1.692-2.854,2.18-4.44
						C38.938,29.722,37.287,27.233,37.284,24.478z"/>
					<path id="_Path_2" d="M33.361,12.86c1.166-1.399,1.74-3.197,1.601-5.013c-1.78,0.188-3.425,1.039-4.606,2.384
						c-1.167,1.328-1.757,3.064-1.643,4.828C30.517,15.076,32.23,14.266,33.361,12.86z"/>
				</g>
			</g>
			<g>
				<path d="M61.183,34.491h-6.537l-1.57,4.635h-2.769l6.191-17.149h2.877l6.192,17.149h-2.816L61.183,34.491z M55.323,32.352h5.182
					l-2.555-7.522h-0.071L55.323,32.352z"/>
				<path d="M78.939,32.875c0,3.886-2.08,6.382-5.218,6.382c-1.623,0.085-3.15-0.765-3.934-2.188h-0.06v6.193h-2.566v-16.64h2.484
					v2.079h0.047c0.818-1.414,2.348-2.263,3.981-2.21C76.847,26.492,78.939,29.001,78.939,32.875z M76.301,32.875
					c0-2.531-1.308-4.195-3.304-4.195c-1.961,0-3.28,1.699-3.28,4.195c0,2.52,1.319,4.207,3.28,4.207
					C74.993,37.082,76.301,35.43,76.301,32.875L76.301,32.875z"/>
				<path d="M92.702,32.875c0,3.886-2.081,6.382-5.219,6.382c-1.623,0.085-3.151-0.765-3.935-2.188H83.49v6.193h-2.567v-16.64h2.484
					v2.079h0.047c0.818-1.414,2.348-2.263,3.981-2.21C90.609,26.492,92.702,29.001,92.702,32.875z M90.063,32.875
					c0-2.531-1.308-4.195-3.304-4.195c-1.961,0-3.28,1.699-3.28,4.195c0,2.52,1.319,4.207,3.28,4.207
					C88.755,37.082,90.063,35.43,90.063,32.875z"/>
				<path d="M101.795,34.348c0.191,1.701,1.843,2.817,4.1,2.817c2.164,0,3.72-1.116,3.72-2.649c0-1.332-0.938-2.129-3.161-2.675
					l-2.223-0.535c-3.147-0.761-4.609-2.233-4.609-4.623c0-2.959,2.578-4.992,6.239-4.992c3.625,0,6.109,2.032,6.192,4.992h-2.592
					c-0.154-1.712-1.57-2.745-3.636-2.745c-2.069,0-3.482,1.046-3.482,2.566c0,1.213,0.903,1.926,3.112,2.473l1.891,0.464
					c3.518,0.832,4.979,2.245,4.979,4.754c0,3.208-2.554,5.218-6.619,5.218c-3.803,0-6.371-1.962-6.538-5.064H101.795z"/>
				<path d="M117.865,23.664v2.959h2.38v2.032h-2.38v6.893c0,1.071,0.478,1.57,1.521,1.57c0.283-0.004,0.565-0.025,0.845-0.06v2.021
					c-0.47,0.088-0.947,0.128-1.425,0.119c-2.532,0-3.52-0.951-3.52-3.376v-7.167h-1.818v-2.032h1.818v-2.959H117.865z"/>
				<path d="M121.62,32.875c0-3.934,2.317-6.405,5.929-6.405c3.626,0,5.932,2.472,5.932,6.405c0,3.945-2.293,6.406-5.932,6.406
					C123.913,39.281,121.62,36.82,121.62,32.875z M130.867,32.875c0-2.698-1.238-4.291-3.318-4.291
					c-2.079,0-3.314,1.604-3.314,4.291c0,2.71,1.235,4.29,3.314,4.29C129.629,37.165,130.867,35.585,130.867,32.875z"/>
				<path d="M135.598,26.623h2.447v2.128h0.059c0.343-1.37,1.597-2.313,3.008-2.259c0.297-0.001,0.591,0.031,0.879,0.096v2.4
					c-0.372-0.114-0.762-0.166-1.151-0.155c-1.427-0.058-2.633,1.052-2.689,2.479c-0.005,0.132,0,0.266,0.014,0.397v7.416h-2.565
					V26.623z"/>
				<path d="M153.824,35.454c-0.346,2.27-2.555,3.827-5.384,3.827c-3.637,0-5.895-2.437-5.895-6.347
					c0-3.922,2.269-6.465,5.786-6.465c3.461,0,5.635,2.376,5.635,6.167v0.879h-8.831v0.155c-0.158,1.792,1.165,3.373,2.956,3.531
					c0.137,0.012,0.272,0.015,0.407,0.011c1.246,0.117,2.42-0.6,2.889-1.759H153.824z M145.149,31.722h6.249
					c0.094-1.658-1.176-3.077-2.834-3.169c-0.077-0.004-0.154-0.006-0.232-0.004c-1.748-0.011-3.172,1.398-3.183,3.146
					C145.149,31.703,145.149,31.714,145.149,31.722L145.149,31.722z"/>
			</g>
		</g>
	</g>
	<g id="_Group_4">
		<g>
			<path d="M55.001,9.068c2.008-0.144,3.752,1.367,3.898,3.375c0.016,0.24,0.011,0.481-0.021,0.72c0,2.632-1.423,4.146-3.877,4.146
				h-2.976v-8.24H55.001z M53.305,16.143h1.554c1.428,0.085,2.655-1.003,2.74-2.432c0.011-0.177,0.003-0.356-0.023-0.532
				c0.196-1.421-0.8-2.731-2.221-2.926c-0.165-0.023-0.331-0.03-0.496-0.021h-1.554V16.143z"/>
			<path d="M60.325,14.196c-0.155-1.62,1.032-3.058,2.653-3.213c1.619-0.155,3.058,1.033,3.213,2.652
				c0.018,0.187,0.018,0.374,0,0.561c0.158,1.62-1.028,3.061-2.646,3.218c-1.621,0.158-3.061-1.027-3.219-2.646
				C60.307,14.577,60.307,14.386,60.325,14.196z M64.928,14.196c0-1.348-0.605-2.136-1.668-2.136c-1.067,0-1.667,0.788-1.667,2.136
				c0,1.359,0.6,2.141,1.667,2.141C64.322,16.337,64.928,15.55,64.928,14.196L64.928,14.196z"/>
			<path d="M73.987,17.308h-1.273l-1.286-4.58h-0.097l-1.28,4.58h-1.261l-1.714-6.219h1.245l1.114,4.746h0.092l1.278-4.746h1.178
				l1.278,4.746h0.097l1.108-4.746h1.228L73.987,17.308z"/>
			<path d="M77.136,11.089h1.181v0.988h0.092c0.318-0.728,1.064-1.172,1.856-1.108c1.114-0.084,2.085,0.751,2.168,1.865
				c0.011,0.149,0.005,0.299-0.016,0.448v4.025H81.19v-3.717c0-1-0.434-1.497-1.342-1.497c-0.786-0.036-1.455,0.572-1.492,1.359
				c-0.004,0.072-0.001,0.145,0.007,0.217v3.638h-1.227V11.089z"/>
			<path d="M84.373,8.662h1.228v8.646h-1.228V8.662z"/>
			<path d="M87.307,14.196c-0.155-1.62,1.033-3.059,2.652-3.213c1.62-0.155,3.059,1.033,3.213,2.652
				c0.019,0.187,0.019,0.374,0,0.561c0.159,1.62-1.028,3.061-2.646,3.218c-1.621,0.158-3.062-1.028-3.219-2.647
				C87.289,14.577,87.289,14.386,87.307,14.196z M91.909,14.196c0-1.348-0.605-2.136-1.668-2.136c-1.067,0-1.667,0.788-1.667,2.136
				c0,1.359,0.6,2.141,1.667,2.141C91.304,16.337,91.909,15.55,91.909,14.196z"/>
			<path d="M94.464,15.55c0-1.12,0.833-1.765,2.314-1.856l1.683-0.097v-0.537c0-0.657-0.435-1.027-1.273-1.027
				c-0.685,0-1.159,0.251-1.294,0.691h-1.189c0.126-1.068,1.13-1.753,2.54-1.753c1.56,0,2.438,0.776,2.438,2.089v4.249h-1.181
				v-0.874h-0.098c-0.4,0.638-1.114,1.012-1.866,0.977c-1.033,0.107-1.956-0.642-2.063-1.674
				C94.468,15.674,94.464,15.612,94.464,15.55z M98.461,15.018v-0.52l-1.519,0.097c-0.854,0.058-1.243,0.349-1.243,0.897
				c0,0.56,0.485,0.885,1.151,0.885c0.807,0.082,1.525-0.505,1.607-1.311C98.458,15.051,98.461,15.034,98.461,15.018z"/>
			<path d="M101.296,14.196c0-1.965,1.012-3.21,2.581-3.21c0.795-0.036,1.538,0.389,1.907,1.091h0.092V8.662h1.228v8.646h-1.176
				v-0.982h-0.098c-0.397,0.697-1.15,1.115-1.953,1.085C102.297,17.411,101.296,16.166,101.296,14.196z M102.563,14.196
				c0,1.319,0.623,2.113,1.662,2.113c1.035,0,1.675-0.805,1.675-2.107c0-1.296-0.647-2.113-1.675-2.113
				C103.192,12.089,102.563,12.888,102.563,14.196L102.563,14.196z"/>
			<path d="M112.183,14.196c-0.156-1.62,1.031-3.058,2.651-3.213c1.62-0.155,3.059,1.033,3.213,2.652
				c0.019,0.187,0.019,0.374,0,0.561c0.158,1.62-1.028,3.061-2.646,3.218c-1.62,0.158-3.062-1.027-3.218-2.646
				C112.163,14.577,112.163,14.386,112.183,14.196z M116.784,14.196c0-1.348-0.604-2.136-1.667-2.136
				c-1.068,0-1.667,0.788-1.667,2.136c0,1.359,0.599,2.141,1.667,2.141C116.18,16.337,116.784,15.55,116.784,14.196z"/>
			<path d="M119.694,11.089h1.182v0.988h0.092c0.318-0.728,1.063-1.172,1.855-1.108c1.114-0.084,2.085,0.751,2.169,1.865
				c0.011,0.149,0.005,0.299-0.017,0.448v4.025h-1.227v-3.717c0-1-0.435-1.497-1.344-1.497c-0.786-0.036-1.454,0.572-1.491,1.359
				c-0.003,0.072,0,0.145,0.008,0.217v3.638h-1.228V11.089z"/>
			<path d="M131.911,9.542v1.576h1.346v1.034h-1.346v3.197c0,0.651,0.267,0.937,0.879,0.937c0.156-0.001,0.313-0.01,0.467-0.028
				v1.022c-0.22,0.039-0.442,0.061-0.666,0.063c-1.365,0-1.91-0.48-1.91-1.679v-3.512h-0.987v-1.034h0.987V9.542H131.911z"/>
			<path d="M134.935,8.662h1.217v3.427h0.097c0.334-0.733,1.093-1.179,1.896-1.114c1.129-0.062,2.094,0.804,2.156,1.934
				c0.007,0.129,0.001,0.257-0.015,0.385v4.015h-1.23v-3.712c0-0.994-0.461-1.497-1.329-1.497c-0.799-0.065-1.5,0.529-1.566,1.329
				c-0.007,0.083-0.007,0.166,0.002,0.248v3.632h-1.228V8.662z"/>
			<path d="M147.442,15.629c-0.346,1.172-1.481,1.93-2.695,1.799c-1.561,0.041-2.857-1.189-2.899-2.749
				c-0.003-0.154,0.006-0.308,0.027-0.461c-0.211-1.57,0.891-3.013,2.461-3.224c0.134-0.018,0.27-0.026,0.406-0.025
				c1.729,0,2.772,1.182,2.772,3.135v0.428h-4.392v0.069c-0.075,0.904,0.597,1.7,1.5,1.775c0.053,0.005,0.105,0.007,0.156,0.006
				c0.602,0.072,1.186-0.226,1.481-0.754H147.442z M143.123,13.625h3.143c0.061-0.826-0.56-1.546-1.386-1.607
				c-0.049-0.004-0.098-0.005-0.146-0.004c-0.878-0.011-1.599,0.692-1.61,1.57C143.123,13.598,143.123,13.611,143.123,13.625
				L143.123,13.625z"/>
		</g>
	</g>
</g>
<title>Download_on_the_App_Store_Badge_US-UK_RGB_wht_092917</title>
</svg>
