<?xml version="1.0" encoding="utf-8"?>
<!-- Generator: Adobe Illustrator 16.0.0, SVG Export Plug-In . SVG Version: 6.00 Build 0)  -->
<!DOCTYPE svg PUBLIC "-//W3C//DTD SVG 1.1//EN" "http://www.w3.org/Graphics/SVG/1.1/DTD/svg11.dtd">
<svg version="1.1" id="Layer_2" xmlns="http://www.w3.org/2000/svg" xmlns:xlink="http://www.w3.org/1999/xlink" x="0px" y="0px"
	 width="170px" height="50px" viewBox="0 0 170 50" enable-background="new 0 0 170 50" xml:space="preserve">
<g>
	<g>
		<path stroke="#000000" stroke-width="0.2509" stroke-miterlimit="10" d="M59.712,12.804c0,1.048-0.313,1.882-0.938,2.504
			c-0.711,0.739-1.638,1.109-2.776,1.109c-1.09,0-2.018-0.374-2.78-1.126c-0.764-0.75-1.146-1.681-1.146-2.791
			c0-1.111,0.382-2.041,1.146-2.791c0.762-0.752,1.69-1.127,2.78-1.127c0.541,0,1.06,0.105,1.551,0.314
			c0.492,0.21,0.887,0.488,1.182,0.838l-0.664,0.66c-0.5-0.594-1.188-0.891-2.068-0.891c-0.796,0-1.483,0.277-2.063,0.833
			c-0.581,0.556-0.871,1.276-0.871,2.163s0.29,1.607,0.871,2.163c0.58,0.556,1.267,0.833,2.063,0.833
			c0.844,0,1.548-0.279,2.11-0.838c0.365-0.363,0.577-0.869,0.634-1.52h-2.744v-0.9h3.661
			C59.694,12.434,59.712,12.622,59.712,12.804z"/>
		<path stroke="#000000" stroke-width="0.2509" stroke-miterlimit="10" d="M65.517,9.672h-3.441v2.377h3.103v0.901h-3.103v2.378
			h3.441v0.922h-4.411v-7.5h4.411V9.672z"/>
		<path stroke="#000000" stroke-width="0.2509" stroke-miterlimit="10" d="M69.611,16.25H68.64V9.672h-2.111V8.75h5.192v0.922
			h-2.109V16.25z"/>
		<path stroke="#000000" stroke-width="0.2509" stroke-miterlimit="10" d="M75.478,16.25v-7.5h0.971v7.5H75.478z"/>
		<path stroke="#000000" stroke-width="0.2509" stroke-miterlimit="10" d="M80.756,16.25h-0.973V9.672h-2.109V8.75h5.189v0.922
			h-2.107V16.25z"/>
		<path stroke="#000000" stroke-width="0.2509" stroke-miterlimit="10" d="M92.692,15.281c-0.741,0.758-1.665,1.136-2.771,1.136
			c-1.103,0-2.025-0.378-2.767-1.136c-0.744-0.758-1.113-1.686-1.113-2.781s0.369-2.023,1.113-2.781
			c0.741-0.758,1.664-1.137,2.767-1.137c1.101,0,2.021,0.381,2.768,1.143c0.745,0.761,1.116,1.686,1.116,2.775
			C93.805,13.596,93.435,14.523,92.692,15.281z M87.869,14.652c0.56,0.563,1.243,0.844,2.052,0.844c0.812,0,1.496-0.281,2.053-0.844
			c0.562-0.562,0.841-1.279,0.841-2.152s-0.279-1.591-0.841-2.152c-0.557-0.563-1.241-0.844-2.053-0.844
			c-0.809,0-1.492,0.281-2.052,0.844c-0.558,0.562-0.836,1.279-0.836,2.152S87.312,14.091,87.869,14.652z"/>
		<path stroke="#000000" stroke-width="0.2509" stroke-miterlimit="10" d="M95.168,16.25v-7.5h1.181l3.674,5.834h0.041l-0.041-1.445
			V8.75h0.971v7.5h-1.012l-3.843-6.117h-0.041l0.041,1.445v4.672H95.168z"/>
	</g>
	<path d="M85.801,27.189c-2.963,0-5.375,2.236-5.375,5.318c0,3.059,2.412,5.314,5.375,5.314s5.376-2.256,5.376-5.314
		C91.177,29.426,88.764,27.189,85.801,27.189z M85.801,35.727c-1.623,0-3.023-1.328-3.023-3.219c0-1.915,1.4-3.224,3.023-3.224
		s3.022,1.309,3.022,3.224C88.823,34.398,87.424,35.727,85.801,35.727z M74.072,27.189c-2.962,0-5.376,2.236-5.376,5.318
		c0,3.059,2.414,5.314,5.376,5.314s5.376-2.256,5.376-5.314C79.448,29.426,77.034,27.189,74.072,27.189z M74.072,35.727
		c-1.623,0-3.023-1.328-3.023-3.219c0-1.915,1.4-3.224,3.023-3.224s3.022,1.309,3.022,3.224
		C77.095,34.398,75.695,35.727,74.072,35.727z M60.122,28.82v2.256h5.437c-0.162,1.27-0.588,2.195-1.237,2.84
		c-0.792,0.787-2.029,1.65-4.199,1.65c-3.348,0-5.965-2.678-5.965-6.002c0-3.322,2.617-6,5.965-6c1.806,0,3.124,0.705,4.098,1.611
		l1.604-1.592c-1.36-1.287-3.165-2.275-5.701-2.275c-4.585,0-8.44,3.705-8.44,8.256c0,4.553,3.855,8.258,8.44,8.258
		c2.475,0,4.341-0.807,5.802-2.314c1.501-1.492,1.968-3.586,1.968-5.279c0-0.521-0.04-1.006-0.122-1.408H60.122z M117.176,30.574
		c-0.447-1.19-1.806-3.385-4.584-3.385c-2.761,0-5.052,2.156-5.052,5.318c0,2.979,2.272,5.314,5.315,5.314
		c2.454,0,3.873-1.489,4.464-2.355l-1.827-1.209c-0.609,0.886-1.439,1.469-2.637,1.469s-2.05-0.541-2.598-1.609l7.162-2.941
		L117.176,30.574z M109.873,32.346c-0.061-2.056,1.604-3.104,2.8-3.104c0.934,0,1.725,0.465,1.989,1.129L109.873,32.346z
		 M104.052,37.5h2.352V21.871h-2.352V37.5z M100.196,28.379h-0.082c-0.527-0.625-1.542-1.189-2.818-1.189
		c-2.68,0-5.135,2.336-5.135,5.337c0,2.981,2.455,5.296,5.135,5.296c1.276,0,2.291-0.564,2.818-1.209h0.082v0.768
		c0,2.033-1.097,3.119-2.86,3.119c-1.439,0-2.334-1.025-2.699-1.891l-2.048,0.844c0.587,1.411,2.148,3.143,4.747,3.143
		c2.76,0,5.091-1.611,5.091-5.538v-9.546h-2.23V28.379z M97.498,35.727c-1.623,0-2.982-1.347-2.982-3.2
		c0-1.872,1.359-3.242,2.982-3.242c1.602,0,2.86,1.37,2.86,3.242C100.358,34.38,99.1,35.727,97.498,35.727z M128.199,21.871h-5.629
		V37.5h2.349v-5.921h3.28c2.605,0,5.164-1.87,5.164-4.854C133.363,23.744,130.805,21.871,128.199,21.871z M128.262,29.404h-3.343
		v-5.357h3.343c1.756,0,2.753,1.445,2.753,2.678C131.015,27.937,130.018,29.404,128.262,29.404z M142.782,27.16
		c-1.701,0-3.463,0.744-4.192,2.393l2.085,0.864c0.445-0.864,1.277-1.146,2.147-1.146c1.215,0,2.452,0.723,2.47,2.01v0.16
		c-0.425-0.24-1.336-0.602-2.451-0.602c-2.246,0-4.535,1.226-4.535,3.518c0,2.093,1.844,3.438,3.908,3.438
		c1.58,0,2.451-0.703,2.998-1.527h0.08v1.209h2.27v-5.993C147.562,28.707,145.476,27.16,142.782,27.16z M142.497,35.725
		c-0.768,0-1.842-0.381-1.842-1.326c0-1.205,1.337-1.67,2.492-1.67c1.032,0,1.518,0.223,2.145,0.523
		C145.11,34.7,143.855,35.725,142.497,35.725z M155.824,27.502l-2.693,6.775h-0.08l-2.796-6.775h-2.53l4.192,9.471l-2.391,5.267
		h2.449l6.463-14.737H155.824z M134.66,37.5h2.349V21.871h-2.349V37.5z"/>
	<g>
		
			<linearGradient id="SVGID_1_" gradientUnits="userSpaceOnUse" x1="27.457" y1="40.166" x2="6.4005" y2="19.1095" gradientTransform="matrix(1 0 0 -1 0 51)">
			<stop  offset="0" style="stop-color:#00A0FF"/>
			<stop  offset="0.0066" style="stop-color:#00A1FF"/>
			<stop  offset="0.2601" style="stop-color:#00BEFF"/>
			<stop  offset="0.5122" style="stop-color:#00D2FF"/>
			<stop  offset="0.7604" style="stop-color:#00DFFF"/>
			<stop  offset="1" style="stop-color:#00E3FF"/>
		</linearGradient>
		<path fill="url(#SVGID_1_)" d="M13.141,9.423c-0.367,0.384-0.583,0.981-0.583,1.756v27.645c0,0.776,0.216,1.372,0.583,1.758
			l0.093,0.091l15.601-15.489v-0.181v-0.184L13.234,9.332L13.141,9.423z"/>
		
			<linearGradient id="SVGID_2_" gradientUnits="userSpaceOnUse" x1="42.606" y1="25.999" x2="12.1356" y2="25.999" gradientTransform="matrix(1 0 0 -1 0 51)">
			<stop  offset="0" style="stop-color:#FFE000"/>
			<stop  offset="0.4087" style="stop-color:#FFBD00"/>
			<stop  offset="0.7754" style="stop-color:#FFA500"/>
			<stop  offset="1" style="stop-color:#FF9C00"/>
		</linearGradient>
		<path fill="url(#SVGID_2_)" d="M34.035,30.348l-5.2-5.165v-0.181v-0.184l5.201-5.162l0.118,0.064l6.161,3.477
			c1.76,0.992,1.76,2.615,0,3.609l-6.161,3.477L34.035,30.348z"/>
		
			<linearGradient id="SVGID_3_" gradientUnits="userSpaceOnUse" x1="31.2466" y1="23.1694" x2="2.655" y2="-5.4221" gradientTransform="matrix(1 0 0 -1 0 51)">
			<stop  offset="0" style="stop-color:#FF3A44"/>
			<stop  offset="1" style="stop-color:#C31162"/>
		</linearGradient>
		<path fill="url(#SVGID_3_)" d="M34.154,30.279l-5.319-5.277L13.141,40.581c0.58,0.608,1.538,0.685,2.616,0.075L34.154,30.279"/>
		
			<linearGradient id="SVGID_4_" gradientUnits="userSpaceOnUse" x1="9.2266" y1="50.8506" x2="21.9919" y2="38.0852" gradientTransform="matrix(1 0 0 -1 0 51)">
			<stop  offset="0" style="stop-color:#32A071"/>
			<stop  offset="0.0685" style="stop-color:#2DA771"/>
			<stop  offset="0.4762" style="stop-color:#15CF74"/>
			<stop  offset="0.8009" style="stop-color:#06E775"/>
			<stop  offset="1" style="stop-color:#00F076"/>
		</linearGradient>
		<path fill="url(#SVGID_4_)" d="M34.154,19.721L15.757,9.346c-1.079-0.608-2.037-0.533-2.616,0.077l15.694,15.579L34.154,19.721z"
			/>
		<g>
			<path opacity="0.2" enable-background="new    " d="M34.036,30.166L15.757,40.474c-1.022,0.575-1.936,0.54-2.523,0.015l0,0
				l-0.093,0.093l0,0l0.093,0.091h0c0.587,0.523,1.5,0.563,2.523-0.016l18.396-10.377L34.036,30.166z"/>
			<path opacity="0.12" enable-background="new    " d="M13.141,40.398c-0.367-0.387-0.583-0.982-0.583-1.756v0.184
				c0,0.773,0.216,1.369,0.583,1.755l0.093-0.093L13.141,40.398z"/>
		</g>
		<path opacity="0.12" enable-background="new    " d="M40.314,26.623l-6.278,3.543l0.118,0.113l6.161-3.473
			c0.88-0.496,1.32-1.15,1.32-1.805l0,0C41.561,25.592,41.113,26.174,40.314,26.623z"/>
		<path opacity="0.25" fill="#FFFFFF" enable-background="new    " d="M15.757,9.529l24.557,13.85
			c0.798,0.448,1.246,1.029,1.32,1.623l0,0c0.001-0.654-0.44-1.309-1.32-1.807L15.757,9.346c-1.759-0.992-3.199-0.168-3.199,1.834
			v0.182C12.559,9.361,13.998,8.537,15.757,9.529z"/>
	</g>
</g>
</svg>
